<?xml version="1.0" standalone="no"?>
<!DOCTYPE svg PUBLIC "-//W3C//DTD SVG 20010904//EN"
 "http://www.w3.org/TR/2001/REC-SVG-20010904/DTD/svg10.dtd">
<svg version="1.0" xmlns="http://www.w3.org/2000/svg"
 width="720.000000pt" height="720.000000pt" viewBox="0 0 720.000000 720.000000"
 preserveAspectRatio="xMidYMid meet">
<metadata>
Created by potrace 1.11, written by Peter Selinger 2001-2013
</metadata>
<g transform="translate(0.000000,720.000000) scale(0.100000,-0.100000)"
fill="#000000" stroke="none">
<path d="M1049 7198 c-1 -2 -2 -236 -3 -520 -1 -454 1 -518 14 -519 16 -1 215
-1 240 0 13 1 15 66 15 521 l0 520 -132 0 c-73 0 -134 -1 -134 -2z"/>
<path d="M3469 7198 c-7 -16 -2 -1031 5 -1035 7 -5 210 -8 251 -4 7 1 10 181
10 518 l0 518 -133 3 c-72 1 -133 1 -133 0z"/>
<path d="M5885 6688 c1 -282 4 -518 7 -523 5 -8 136 -11 248 -6 13 1 15 63 15
519 l0 517 -135 3 -135 3 0 -513z"/>
<path d="M269 6775 c-83 -24 -145 -82 -174 -164 -13 -39 -15 -415 -15 -3327
l0 -3284 3520 0 3520 0 0 3278 c0 3623 5 3337 -64 3419 -21 23 -57 50 -88 63
-52 23 -59 24 -398 24 l-345 1 -5 -345 -5 -345 -195 0 -195 0 -2 340 c-1 187
-2 342 -2 345 -1 8 -2008 6 -2016 -2 -4 -4 -8 -159 -9 -345 l-1 -338 -195 0
-195 0 -2 315 c-1 173 -2 329 -2 345 l-1 30 -1010 0 c-673 0 -1010 -3 -1011
-10 0 -5 -1 -161 -2 -345 l-2 -335 -197 -1 -198 -1 -2 346 -3 346 -336 0
c-196 0 -350 -4 -370 -10z m6439 -1565 l2 -335 -3107 0 -3108 0 -3 325 c-1
179 -1 329 2 335 2 7 1031 10 3107 10 l3104 0 3 -335z m-5178 -1500 l0 -520
-520 0 -520 0 0 520 0 520 520 0 520 0 0 -520z m1294 8 c-1 -282 -2 -516 -3
-521 0 -4 -234 -6 -518 -5 l-518 3 0 510 c-1 281 1 513 3 518 2 4 236 7 520 7
l517 0 -1 -512z m1296 -8 l0 -520 -520 0 -520 0 0 520 0 520 520 0 520 0 0
-520z m1294 8 c-1 -282 -2 -516 -3 -521 0 -4 -234 -6 -518 -5 l-518 3 -1 510
c0 281 1 513 3 518 2 4 237 7 521 7 l517 0 -1 -512z m1296 -8 l0 -520 -520 0
-520 0 0 520 0 520 520 0 520 0 0 -520z m-5187 -879 c4 -1 7 -234 7 -519 l0
-518 -517 0 -518 1 -3 517 -2 517 27 3 c23 2 980 1 1006 -1z m1297 0 c11 -2 6
-1031 -5 -1033 -31 -4 -1025 -3 -1026 1 -5 26 -3 1027 2 1031 5 4 1004 5 1029
1z m1295 -517 l0 -519 -517 -1 -518 0 0 517 c0 336 4 519 10 521 5 2 238 3
517 2 l508 -1 0 -519z m1290 517 c14 -1 14 -1024 0 -1032 -5 -3 -239 -5 -520
-5 l-510 1 0 515 0 515 24 5 c19 4 957 5 1006 1z m1298 0 c4 -1 7 -234 7 -519
l0 -518 -520 0 -520 0 0 517 c0 336 4 519 10 521 8 2 996 2 1023 -1z m-5175
-1915 l-3 -520 -505 -1 c-278 0 -511 1 -517 3 -10 3 -13 115 -13 516 0 282 2
515 4 517 3 2 237 4 520 4 l516 0 -2 -519z m1287 515 c13 -1 14 -1015 2 -1027
-8 -9 -1015 -12 -1025 -4 -4 3 -7 236 -7 517 0 448 2 513 15 515 14 3 994 2
1015 -1z m1293 0 c10 -1 12 -108 10 -518 l-3 -517 -515 0 -515 0 -3 519 -2
520 507 -1 c280 -1 514 -2 521 -3z m1307 -509 c0 -369 -4 -515 -12 -520 -8 -5
-997 -8 -1023 -3 -4 1 -5 1036 -1 1036 0 0 234 0 519 0 l517 1 0 -514z m1293
-1 c1 -303 -2 -517 -7 -520 -5 -3 -238 -6 -518 -5 l-508 0 -3 520 -2 520 517
-1 518 0 3 -514z"/>
</g>
</svg>
